<svg width="64" height="64" viewBox="0 0 64 64" fill="none" xmlns="http://www.w3.org/2000/svg">
<path d="M32 37.3334C29.7778 37.3334 27.8889 36.5556 26.3334 35C24.7778 33.4445 24 31.5556 24 29.3334V13.3334C24 11.1112 24.7778 9.22226 26.3334 7.66671C27.8889 6.11115 29.7778 5.33337 32 5.33337C34.2223 5.33337 36.1112 6.11115 37.6667 7.66671C39.2223 9.22226 40 11.1112 40 13.3334V29.3334C40 31.5556 39.2223 33.4445 37.6667 35C36.1112 36.5556 34.2223 37.3334 32 37.3334ZM29.3334 56V47.8C24.7112 47.1778 20.8889 45.1112 17.8667 41.6C14.8445 38.0889 13.3334 34 13.3334 29.3334H18.6667C18.6667 33.0223 19.9672 36.1672 22.568 38.768C25.1689 41.3689 28.3129 42.6685 32 42.6667C35.6889 42.6667 38.8338 41.3663 41.4347 38.7654C44.0356 36.1645 45.3351 33.0205 45.3334 29.3334H50.6667C50.6667 34 49.1556 38.0889 46.1334 41.6C43.1111 45.1112 39.2889 47.1778 34.6667 47.8V56H29.3334Z" fill="black"/>
</svg>
