<svg width="24" height="24" viewBox="0 0 24 24" fill="none" xmlns="http://www.w3.org/2000/svg">
<path d="M17.75 14.95L16.3 13.5C16.5334 13.1167 16.7084 12.7167 16.825 12.3C16.9417 11.8833 17 11.45 17 11H19C19 11.7333 18.8917 12.4293 18.675 13.088C18.4584 13.7467 18.15 14.3673 17.75 14.95ZM14.8 11.95L9.00002 6.15V5C9.00002 4.16667 9.29169 3.45833 9.87502 2.875C10.4584 2.29167 11.1667 2 12 2C12.8334 2 13.5417 2.29167 14.125 2.875C14.7084 3.45833 15 4.16667 15 5V11C15 11.1833 14.9794 11.35 14.938 11.5C14.8967 11.65 14.8507 11.8 14.8 11.95ZM11 21V17.9C9.26669 17.6667 7.83336 16.896 6.70002 15.588C5.56669 14.28 5.00002 12.7507 5.00002 11H7.00002C7.00002 12.3833 7.48769 13.5627 8.46302 14.538C9.43836 15.5133 10.6174 16.0007 12 16C12.5667 16 13.1044 15.9127 13.613 15.738C14.1217 15.5633 14.584 15.3173 15 15L16.425 16.425C15.9417 16.8083 15.4124 17.1293 14.837 17.388C14.2617 17.6467 13.6494 17.8173 13 17.9V21H11ZM19.8 22.6L1.40002 4.2L2.80002 2.8L21.2 21.2L19.8 22.6Z" fill="black"/>
</svg>
