<svg width="63" height="63" viewBox="0 0 63 63" fill="none" xmlns="http://www.w3.org/2000/svg">
<path d="M46.5938 39.2437L42.7875 35.4375C43.4 34.4313 43.8594 33.3813 44.1657 32.2875C44.4719 31.1938 44.625 30.0562 44.625 28.875H49.875C49.875 30.8 49.5907 32.627 49.0219 34.356C48.4532 36.085 47.6438 37.7142 46.5938 39.2437ZM38.8501 31.3687L23.625 16.1438V13.125C23.625 10.9375 24.3907 9.07812 25.9219 7.54688C27.4532 6.01563 29.3125 5.25 31.5 5.25C33.6875 5.25 35.5469 6.01563 37.0782 7.54688C38.6094 9.07812 39.375 10.9375 39.375 13.125V28.875C39.375 29.3563 39.3208 29.7937 39.2123 30.1875C39.1038 30.5813 38.9831 30.975 38.8501 31.3687ZM28.875 55.125V46.9875C24.325 46.375 20.5625 44.352 17.5875 40.9185C14.6125 37.485 13.125 33.4705 13.125 28.875H18.375C18.375 32.5062 19.6552 35.602 22.2154 38.1623C24.7757 40.7225 27.8705 42.0017 31.5 42C32.9875 42 34.3989 41.7707 35.7342 41.3122C37.0694 40.8537 38.283 40.208 39.375 39.375L43.1157 43.1156C41.8469 44.1219 40.4574 44.9645 38.9472 45.6435C37.4369 46.3225 35.8295 46.7705 34.125 46.9875V55.125H28.875ZM51.975 59.325L3.67505 11.025L7.35005 7.35L55.6501 55.65L51.975 59.325Z" fill="black"/>
</svg>
