<svg width="63" height="63" viewBox="0 0 63 63" fill="none" xmlns="http://www.w3.org/2000/svg">
<path d="M14.175 31.5C14.175 31.0823 14.0091 30.6817 13.7137 30.3864C13.4183 30.091 13.0177 29.925 12.6 29.925C12.1823 29.925 11.7817 30.091 11.4863 30.3864C11.191 30.6817 11.025 31.0823 11.025 31.5C11.0244 35.8227 12.6397 39.9894 15.5538 43.1821C18.4679 46.3748 22.4703 48.3628 26.775 48.7557V55.1251C26.775 55.5428 26.941 55.9434 27.2363 56.2387C27.5317 56.5341 27.9323 56.7001 28.35 56.7001C28.7677 56.7001 29.1683 56.5341 29.4637 56.2387C29.7591 55.9434 29.925 55.5428 29.925 55.1251V52.9012C28.8841 50.6345 28.3468 48.1692 28.35 45.6751C24.5906 45.6751 20.9851 44.1816 18.3268 41.5233C15.6685 38.865 14.175 35.2595 14.175 31.5ZM37.8 15.75V30.2401C35.6809 31.3243 33.8073 32.8325 32.2955 34.6711C30.7837 36.5097 29.6659 38.6394 29.0115 40.928C27.7179 41.0188 26.4194 40.8423 25.1969 40.4096C23.9744 39.9769 22.8541 39.2972 21.9056 38.4129C20.9571 37.5285 20.2008 36.4584 19.6837 35.2691C19.1666 34.0798 18.8999 32.7969 18.9 31.5V15.75C18.9 13.2438 19.8956 10.8401 21.6679 9.06789C23.4401 7.29567 25.8437 6.30005 28.35 6.30005C30.8563 6.30005 33.26 7.29567 35.0322 9.06789C36.8044 10.8401 37.8 13.2438 37.8 15.75ZM53.55 45.6751C53.55 47.7636 52.7203 49.7667 51.2435 51.2435C49.7666 52.7204 47.7636 53.5501 45.675 53.5501C43.5864 53.5501 41.5834 52.7204 40.1066 51.2435C38.6297 49.7667 37.8 47.7636 37.8 45.6751C37.8 43.5865 38.6297 41.5834 40.1066 40.1066C41.5834 38.6297 43.5864 37.8 45.675 37.8C47.7636 37.8 49.7666 38.6297 51.2435 40.1066C52.7203 41.5834 53.55 43.5865 53.55 45.6751ZM59.85 45.6751C59.85 49.4345 58.3566 53.04 55.6983 55.6983C53.0399 58.3566 49.4345 59.8501 45.675 59.8501C41.9156 59.8501 38.3101 58.3566 35.6518 55.6983C32.9935 53.04 31.5 49.4345 31.5 45.6751C31.5 41.9156 32.9935 38.3101 35.6518 35.6518C38.3101 32.9935 41.9156 31.5 45.675 31.5C49.4345 31.5 53.0399 32.9935 55.6983 35.6518C58.3566 38.3101 59.85 41.9156 59.85 45.6751ZM34.65 45.6751C34.65 47.1229 34.9352 48.5565 35.4893 49.8941C36.0433 51.2317 36.8554 52.4471 37.8792 53.4709C38.9029 54.4947 40.1183 55.3068 41.4559 55.8608C42.7936 56.4149 44.2272 56.7001 45.675 56.7001C47.1228 56.7001 48.5565 56.4149 49.8941 55.8608C51.2317 55.3068 52.4471 54.4947 53.4709 53.4709C54.4946 52.4471 55.3067 51.2317 55.8608 49.8941C56.4149 48.5565 56.7 47.1229 56.7 45.6751C56.7 42.751 55.5385 39.9468 53.4709 37.8792C51.4033 35.8116 48.599 34.65 45.675 34.65C42.751 34.65 39.9468 35.8116 37.8792 37.8792C35.8116 39.9468 34.65 42.751 34.65 45.6751Z" fill="#FF0000"/>
</svg>
